<?xml version="1.0" encoding="utf-8"?>
<!-- Generator: Adobe Illustrator 15.0.0, SVG Export Plug-In . SVG Version: 6.00 Build 0)  -->
<!DOCTYPE svg PUBLIC "-//W3C//DTD SVG 1.1//EN" "http://www.w3.org/Graphics/SVG/1.1/DTD/svg11.dtd">
<svg version="1.1" id="Layer_1" xmlns="http://www.w3.org/2000/svg" xmlns:xlink="http://www.w3.org/1999/xlink" x="0px" y="0px"
	 width="841.89px" height="595.28px" viewBox="0 0 841.89 595.28" enable-background="new 0 0 841.89 595.28" xml:space="preserve">
<g>
	<g>
		<path fill="#003E73" d="M211.207,491.529c-5.318,23.813-15.319,42.8-29.964,56.944c-17.827,17.19-41.086,25.831-69.77,25.831
			c-29.169,0-53.565-9.814-73.21-29.336c-19.646-19.565-29.479-43.81-29.479-72.815c0-29.15,10.016-53.687,30.063-73.56
			c20.017-19.892,44.715-29.831,74.067-29.831c28.874,0,52.974,9.755,72.278,29.256c11.258,11.357,19.751,26.449,25.456,45.272
			l-66.93-0.474c-7.569-10.928-18.312-16.41-32.244-16.41c-12.426,0-22.684,4.307-30.753,12.902
			c-8.091,8.599-12.13,19.566-12.13,32.844c0,12.823,3.97,23.418,11.911,31.789c7.94,8.352,17.971,12.555,30.108,12.555
			c12.35,0,22.153-3.688,29.472-11.072c3.652-3.69,6.568-8.141,8.735-13.44L211.207,491.529z"/>
		<path fill="#003E73" d="M246.111,569.396V442.341c0-22.282,6.667-40.136,20.009-53.496c13.327-13.399,31.093-20.082,53.277-20.082
			c22.093,0,38.988,6.496,50.708,19.506c11.698,13.008,17.555,31.684,17.555,56.072v125.055h-58.232V444.341
			c0-11.955-4.258-17.934-12.75-17.934c-8.22,0-12.342,5.979-12.342,17.934v125.055H246.111z"/>
		<path fill="#003E73" d="M535.854,449.784v43.602h-38.019c-5.151,0-8.803,0.766-10.97,2.288c-2.138,1.55-3.22,4.126-3.22,7.773
			c0,4.103,1.112,6.785,3.295,8.081c2.213,1.299,6.697,1.938,13.479,1.938h39.161v55.929h-45.745
			c-21.516,0-37.957-5.151-49.338-15.398c-11.379-10.285-17.069-25.131-17.069-44.53v-76.753c0-18.717,5.372-33.252,16.131-43.602
			c10.751-10.307,25.88-15.481,45.382-15.481h50.64v56.221h-37.138c-10.055,0-15.063,3.275-15.063,9.749
			c0,3.854,1.197,6.476,3.583,7.956c2.396,1.507,6.645,2.228,12.767,2.228H535.854z"/>
	</g>
	<path fill="#E30613" d="M278.03,308.708c40.238-38.919,93.674-64.072,153.329-64.072c121.207,0,219.473,100.833,219.473,225.188
		c0,32.426-8.138,62.63-18.698,91.078c-8.197,22.041-24.82,13.402-24.82,13.402c-17.122-7.67-13.66-19.505-13.66-19.505
		c11.523-25.869,17.956-54.652,17.956-84.976c0-112.975-89.271-204.573-199.364-204.573c-50.11,0-95.878,18.967-130.896,50.284
		C281.349,315.535,273.803,312.834,278.03,308.708z"/>
	<path fill="#003E73" d="M177.825,316.709c40.14-61.372,101.97-110.417,180.021-130.931c158.55-41.707,319.428,47.5,359.294,199.231
		c10.409,39.541,9.439,79.165,4.758,117.532c-3.645,29.707-28.169,24.84-28.169,24.84c-24.851-3.44-24.124-19.07-24.124-19.07
		c6.789-35.518,5.956-72.835-3.765-109.819c-36.222-137.837-182.37-218.877-326.396-181.006
		c-65.536,17.236-119.327,56.095-155.118,106.357C184.326,323.843,173.605,323.142,177.825,316.709z"/>
	<path fill="#FFDE00" d="M794.632,427.229C779.586,241.071,624.784,92.802,430.147,92.802
		c-157.193,0-289.401,97.224-342.617,231.908c-2.44,6.224,10.046,7.051,10.046,7.051
		c53.724-121.798,173.316-206.574,312.237-206.574c174.771,0,318.957,134.17,339.859,307.445c0,0-0.712,12.103,23.896,10.637
		C773.568,443.269,795.889,442.567,794.632,427.229z"/>
	<path fill="#FFDE00" d="M7.328,351.984c2.03-36.635,10.659-71.827,25.063-104.648C90.712,114.22,242.709,19.307,421.057,19.307
		c220.797,0,398.592,145.67,413.486,328.779c0.683,8.369-14.819,11.813-14.819,11.813c-12.243,1.383-22.804-6.884-22.804-6.884
		C768.652,187.385,597.646,62.659,394.04,67.444c-161.847,3.814-299.259,88.42-359.074,206.735
		c-12.471,24.657-21.585,50.796-26.843,77.993C8.123,352.172,7.282,353.076,7.328,351.984z"/>
</g>
</svg>
