<svg width="91" height="91" viewBox="0 0 91 91" fill="none" xmlns="http://www.w3.org/2000/svg">
<path d="M45.5 91C70.629 91 91 70.629 91 45.5C91 20.371 70.629 0 45.5 0C20.371 0 0 20.371 0 45.5C0 70.629 20.371 91 45.5 91Z" fill="#22376B"/>
<path d="M61.1883 75.8333C68.1273 75.8333 73.7524 70.2082 73.7524 63.2693C73.7524 56.3303 68.1273 50.7052 61.1883 50.7052C54.2494 50.7052 48.6243 56.3303 48.6243 63.2693C48.6243 70.2082 54.2494 75.8333 61.1883 75.8333Z" fill="#AADDFF"/>
<path d="M20.9239 18.849C16.0159 23.757 16.0159 31.7104 20.9239 36.6183C25.8318 41.5262 25.8318 49.4796 20.9239 54.3876C16.0159 59.2955 16.0159 67.2489 20.9239 72.1568C25.8318 77.0648 33.7852 77.0648 38.6931 72.1568C43.6011 67.2489 43.6011 59.2955 38.6931 54.3876C33.7852 49.4796 33.7852 41.5262 38.6931 36.6183C43.6011 31.7104 43.6011 23.757 38.6931 18.849C33.7852 13.9411 25.8318 13.9411 20.9239 18.849Z" fill="white"/>
<path d="M55.5525 28.8167C55.5525 31.3283 57.5909 33.3667 60.1025 33.3667C62.6141 33.3667 64.6525 35.4051 64.6525 37.9167C64.6525 40.4283 66.6909 42.4667 69.2025 42.4667C71.7141 42.4667 73.7525 40.4283 73.7525 37.9167C73.7525 35.4051 71.7141 33.3667 69.2025 33.3667C66.6909 33.3667 64.6525 31.3283 64.6525 28.8167C64.6525 26.3051 62.6141 24.2667 60.1025 24.2667C57.5909 24.2667 55.5525 26.3051 55.5525 28.8167Z" fill="white"/>
<path d="M51.0024 24.2667C53.5153 24.2667 55.5524 22.2296 55.5524 19.7167C55.5524 17.2038 53.5153 15.1667 51.0024 15.1667C48.4895 15.1667 46.4524 17.2038 46.4524 19.7167C46.4524 22.2296 48.4895 24.2667 51.0024 24.2667Z" fill="#AADDFF"/>
</svg>
